M48
; DRILL file {KiCad 8.0.8} date 2025-01-31T18:29:08-0500
; FORMAT={-:-/ absolute / metric / decimal}
; #@! TF.CreationDate,2025-01-31T18:29:08-05:00
; #@! TF.GenerationSoftware,Kicad,Pcbnew,8.0.8
; #@! TF.FileFunction,Plated,1,2,PTH
FMAT,2
METRIC
; #@! TA.AperFunction,Plated,PTH,ViaDrill
T1C0.300
; #@! TA.AperFunction,Plated,PTH,ViaDrill
T2C0.330
; #@! TA.AperFunction,Plated,PTH,ComponentDrill
T3C0.500
; #@! TA.AperFunction,Plated,PTH,ComponentDrill
T4C0.800
; #@! TA.AperFunction,Plated,PTH,ComponentDrill
T5C0.900
; #@! TA.AperFunction,Plated,PTH,ComponentDrill
T6C0.920
; #@! TA.AperFunction,Plated,PTH,ComponentDrill
T7C1.000
; #@! TA.AperFunction,Plated,PTH,ComponentDrill
T8C1.100
; #@! TA.AperFunction,Plated,PTH,ComponentDrill
T9C1.200
; #@! TA.AperFunction,Plated,PTH,ComponentDrill
T10C2.330
; #@! TA.AperFunction,Plated,PTH,ComponentDrill
T11C2.500
%
G90
G05
T1
X109.5Y-147.0
X109.5Y-148.0
X111.5Y-147.0
X111.5Y-148.0
X113.2Y-164.3
X113.8Y-147.3
X114.5Y-144.2
X115.052Y-149.4
X115.5Y-151.8
X116.0Y-157.2
X116.6Y-154.5
X117.7Y-161.8
X118.25Y-93.0
X118.5Y-159.3
X131.0Y-146.5
X132.25Y-166.25
X132.25Y-170.5
X133.0Y-105.0
X133.0Y-146.5
X135.0Y-146.5
X135.9Y-103.15
X136.0Y-98.0
X136.398Y-133.452
X136.5Y-105.0
X138.5Y-98.0
X141.5Y-97.5
X143.5Y-97.5
X144.8Y-95.0
X146.1Y-156.0
X147.0Y-97.5
X147.2Y-134.0
X147.8Y-104.8
X149.8Y-134.0
X151.5Y-97.5
X152.5Y-125.0
X155.11Y-109.81
X157.937Y-131.312
X158.242Y-103.4
X159.5Y-133.75
X160.5Y-124.75
X162.5Y-133.75
X163.5Y-124.75
X164.92Y-119.775
X165.95Y-102.4
X166.2Y-128.825
X166.5Y-124.75
X166.85Y-96.45
X167.132Y-83.058
X167.2Y-156.3
X168.0Y-132.75
X168.0Y-134.25
X168.998Y-119.3
X169.438Y-104.237
X169.8Y-126.188
X170.0Y-132.0
X170.1Y-160.3
X170.1Y-181.697
X170.6Y-103.4
X170.84Y-108.458
X171.602Y-119.419
X171.875Y-100.216
X172.0Y-150.3
X173.65Y-102.35
X173.918Y-138.75
X174.75Y-149.15
X175.29Y-84.46
X175.63Y-94.23
X175.943Y-152.543
X177.25Y-134.998
X177.9Y-91.7
X178.3Y-85.5
X178.73Y-135.397
X179.0Y-90.5
X179.251Y-119.875
X180.5Y-129.5
X180.5Y-133.75
X180.5Y-136.75
X180.5Y-139.25
X181.98Y-130.55
X182.97Y-131.002
X184.2Y-159.3
X184.252Y-147.828
X184.6Y-138.3
X184.7Y-143.719
X185.0Y-121.75
X186.0Y-80.25
X186.5Y-151.402
X188.25Y-129.5
X189.25Y-137.0
X190.246Y-85.446
X191.25Y-137.0
X193.0Y-129.5
X193.25Y-137.0
X195.7Y-98.5
X196.9Y-101.3
X197.122Y-89.154
X198.374Y-181.697
X203.952Y-124.209
X204.32Y-80.47
X204.98Y-120.402
X207.39Y-154.04
X208.026Y-181.697
X214.91Y-109.54
X216.0Y-128.0
X216.0Y-130.5
X216.57Y-145.27
X217.263Y-102.975
X217.59Y-128.88
X218.65Y-123.575
X219.12Y-82.2
X219.3Y-142.2
X219.6Y-118.567
X219.688Y-110.868
X219.84Y-152.25
X220.0Y-128.25
X220.0Y-130.5
X220.0Y-158.25
X220.0Y-159.5
X220.61Y-108.99
X221.13Y-121.96
X221.27Y-164.68
X221.58Y-141.68
X221.66Y-123.11
X222.25Y-157.0
X222.25Y-158.0
X222.67Y-140.55
X222.86Y-126.86
X223.09Y-109.61
X223.725Y-158.5
X225.5Y-128.25
X225.5Y-130.5
X225.71Y-110.04
X225.875Y-163.2
X226.75Y-140.048
X228.15Y-110.61
X228.25Y-128.25
X228.25Y-130.5
X229.0Y-157.0
X230.4Y-119.748
X230.843Y-163.765
X233.2Y-120.9
X233.5Y-177.975
X233.7Y-154.6
X235.5Y-177.975
X236.282Y-89.022
X237.0Y-100.0
X237.0Y-103.0
X237.299Y-147.416
X239.53Y-114.64
X240.18Y-142.3
X240.65Y-139.73
X241.75Y-126.58
X242.15Y-97.15
X243.2Y-166.4
X243.383Y-119.902
X243.6Y-177.421
X245.364Y-152.197
X245.53Y-87.85
X246.75Y-128.0
X247.25Y-83.25
X247.5Y-172.25
X247.5Y-173.25
X248.5Y-175.25
X248.5Y-176.25
X249.1Y-158.7
X249.39Y-107.75
X249.43Y-134.28
X249.5Y-131.5
X249.6Y-149.9
X250.35Y-143.85
X250.75Y-128.0
X250.75Y-131.5
X250.8Y-138.633
X251.0Y-83.25
X251.118Y-103.869
X251.841Y-146.03
X251.866Y-135.839
X252.162Y-107.25
X252.7Y-120.079
X253.0Y-83.25
X254.426Y-147.638
X255.2Y-147.83
X255.75Y-86.5
X257.7Y-107.89
X259.5Y-83.5
X270.07Y-119.8
X270.2Y-158.8
X272.24Y-79.9
X277.0Y-151.832
X279.76Y-76.851
X280.025Y-111.06
X283.2Y-180.252
X283.725Y-151.9
X284.002Y-148.706
X284.575Y-163.765
X287.627Y-152.11
X287.884Y-129.743
X288.1Y-126.7
X288.1Y-131.8
X289.4Y-135.69
X291.51Y-98.83
X292.0Y-88.0
X292.0Y-89.0
X292.502Y-154.5
X293.4Y-94.02
X293.41Y-91.12
X293.46Y-140.0
X293.5Y-161.4
X294.2Y-139.3
X294.71Y-180.053
X296.4Y-180.25
X296.5Y-162.0
X296.99Y-110.43
X297.3Y-142.1
X297.485Y-134.225
X298.118Y-154.5
X298.25Y-114.57
X298.82Y-95.115
X300.1Y-137.8
X300.1Y-156.0
X300.939Y-133.5
X301.1Y-147.7
X301.2Y-116.9
X301.2Y-135.1
X301.433Y-148.346
X301.7Y-117.5
X301.898Y-121.253
X302.2Y-118.1
X302.5Y-174.78
X302.672Y-118.748
X303.102Y-155.6
X303.186Y-119.286
X303.37Y-148.98
X304.138Y-120.449
X304.19Y-154.28
X305.99Y-113.99
X306.121Y-167.132
X306.267Y-151.625
X306.603Y-166.091
T2
X112.6Y-153.245
X119.232Y-157.01
X120.701Y-102.87
X126.7Y-151.0
X127.2Y-149.24
X127.4Y-148.4
X127.8Y-154.31
X128.7Y-160.9
X129.1Y-159.4
X129.5Y-157.935
X129.78Y-164.35
X130.118Y-155.48
X130.915Y-172.42
X130.97Y-151.6
X136.906Y-111.545
X137.39Y-148.345
X137.507Y-138.881
X138.05Y-153.7
X138.1Y-142.05
X139.755Y-125.362
X140.716Y-106.426
X141.571Y-146.88
X142.677Y-148.407
X142.697Y-113.894
X148.78Y-136.55
X149.4Y-123.5
X150.724Y-131.928
X152.775Y-137.825
X152.875Y-147.85
X153.15Y-106.55
X153.71Y-115.65
X154.37Y-117.69
X155.0Y-145.55
X155.2Y-143.3
X166.024Y-130.295
X167.23Y-108.628
X169.824Y-107.969
X172.38Y-107.747
X172.54Y-135.5
X174.854Y-108.407
X176.4Y-145.9
X182.645Y-100.827
X185.66Y-140.25
X187.21Y-127.32
X188.08Y-142.43
X190.144Y-93.223
X194.3Y-100.055
X196.15Y-148.97
X197.87Y-81.84
X204.585Y-162.865
X204.636Y-168.236
X204.724Y-175.463
X204.855Y-165.2
X205.3Y-167.7
X205.639Y-175.71
X206.451Y-175.745
X209.703Y-97.452
X215.8Y-139.2
X217.16Y-180.927
X217.375Y-109.35
X217.8Y-116.922
X218.37Y-102.655
X221.7Y-79.978
X222.32Y-87.975
X223.76Y-118.524
X224.04Y-81.068
X224.49Y-145.72
X224.8Y-164.9
X225.72Y-118.255
X225.79Y-150.36
X227.0Y-102.355
X227.183Y-84.263
X227.34Y-166.153
X227.8Y-82.745
X228.0Y-118.055
X230.185Y-84.183
X230.395Y-83.055
X230.629Y-153.8
X230.9Y-117.778
X231.201Y-76.76
X231.314Y-169.948
X231.665Y-170.681
X233.24Y-117.418
X233.715Y-77.043
X235.235Y-87.9
X235.625Y-129.72
X236.085Y-84.4
X236.795Y-117.332
X237.6Y-162.718
X238.05Y-134.4
X238.346Y-138.475
X239.0Y-95.3
X239.08Y-150.455
X240.0Y-162.1
X240.725Y-140.5
X240.97Y-94.558
X242.613Y-141.85
X246.74Y-154.31
X248.9Y-173.7
X249.4Y-161.3
X254.95Y-170.5
X255.491Y-168.4
X256.45Y-165.54
X256.5Y-179.1
X257.4Y-178.9
X257.715Y-160.956
X262.224Y-157.0
X264.575Y-93.43
X265.42Y-148.79
X266.06Y-94.035
X266.24Y-80.38
X273.66Y-98.225
X274.32Y-94.335
X277.4Y-171.0
X279.38Y-119.014
X279.416Y-119.924
X280.2Y-80.74
X280.256Y-118.142
X280.298Y-119.161
X280.36Y-90.25
X281.08Y-117.105
X281.135Y-118.034
X281.85Y-116.668
X289.62Y-89.62
X293.19Y-84.25
X294.2Y-167.2
X297.3Y-166.3
X301.05Y-90.425
X301.658Y-86.53
X303.86Y-86.9
T3
X105.125Y-78.0
X105.125Y-180.0
X105.674Y-76.674
X105.674Y-79.326
X105.674Y-178.674
X105.674Y-181.326
X107.0Y-76.125
X107.0Y-79.875
X107.0Y-178.125
X107.0Y-181.875
X108.326Y-76.674
X108.326Y-79.326
X108.326Y-178.674
X108.326Y-181.326
X108.875Y-78.0
X108.875Y-180.0
X160.5Y-85.6
X305.125Y-78.0
X305.451Y-180.326
X305.674Y-76.674
X305.674Y-79.326
X306.0Y-179.0
X306.0Y-181.652
X307.0Y-76.125
X307.0Y-79.875
X307.326Y-178.451
X307.326Y-182.201
X308.326Y-76.674
X308.326Y-79.326
X308.652Y-179.0
X308.652Y-181.652
X308.875Y-78.0
X309.201Y-180.326
T4
X106.0Y-105.0
X106.0Y-107.54
X106.0Y-110.08
X106.0Y-112.62
X106.0Y-115.16
X106.0Y-117.7
X106.0Y-120.24
X106.0Y-122.78
X106.0Y-134.0
X106.0Y-136.54
X106.0Y-139.08
X106.0Y-141.62
X106.0Y-144.16
X106.0Y-146.7
X106.0Y-149.24
X106.0Y-151.78
X106.0Y-154.32
X106.0Y-156.86
X106.0Y-159.4
X106.0Y-161.94
X106.0Y-164.48
X106.0Y-167.02
X106.1Y-170.0
X106.1Y-175.0
X106.6Y-125.9
X106.6Y-130.9
X113.62Y-105.0
X113.62Y-107.54
X113.62Y-110.08
X113.62Y-112.62
X113.62Y-115.16
X113.62Y-117.7
X113.62Y-120.24
X113.62Y-122.78
X115.0Y-76.38
X115.0Y-84.0
X118.82Y-105.0
X118.82Y-107.54
X118.82Y-110.08
X118.82Y-112.62
X118.82Y-115.16
X118.82Y-117.7
X118.82Y-120.24
X118.82Y-122.78
X118.82Y-125.32
X118.82Y-127.86
X121.24Y-134.0
X121.24Y-136.54
X121.24Y-139.08
X121.24Y-141.62
X121.24Y-144.16
X121.24Y-146.7
X121.24Y-149.24
X121.24Y-151.78
X121.24Y-154.32
X121.24Y-156.86
X121.24Y-159.4
X121.24Y-161.94
X121.24Y-164.48
X121.24Y-167.02
X123.4Y-170.7
X125.0Y-134.0
X125.0Y-136.54
X125.0Y-139.08
X125.0Y-141.62
X125.0Y-144.16
X125.0Y-146.7
X125.0Y-149.24
X125.0Y-151.78
X125.0Y-154.32
X125.0Y-156.86
X125.0Y-159.4
X125.0Y-161.94
X125.0Y-164.48
X125.0Y-167.02
X125.5Y-85.0
X125.5Y-92.62
X125.8Y-101.5
X126.44Y-105.0
X126.44Y-107.54
X126.44Y-110.08
X126.44Y-112.62
X126.44Y-115.16
X126.44Y-117.7
X126.44Y-120.24
X126.44Y-122.78
X126.44Y-125.32
X126.44Y-127.86
X128.4Y-170.7
X129.92Y-78.6
X130.2Y-125.8
X130.8Y-101.5
X131.0Y-105.0
X131.0Y-107.54
X131.0Y-110.08
X131.0Y-112.62
X131.0Y-115.16
X131.0Y-117.7
X131.0Y-120.24
X131.0Y-122.78
X131.5Y-85.0
X131.5Y-87.5
X132.46Y-78.6
X132.6Y-92.8
X132.6Y-97.8
X135.0Y-78.6
X135.2Y-125.8
X135.88Y-92.75
X135.88Y-100.37
X138.42Y-92.75
X138.42Y-100.37
X138.62Y-105.0
X138.62Y-107.54
X138.62Y-110.08
X138.62Y-112.62
X138.62Y-115.16
X138.62Y-117.7
X138.62Y-120.24
X138.62Y-122.78
X140.24Y-134.0
X140.24Y-136.54
X140.24Y-139.08
X140.24Y-141.62
X140.24Y-144.16
X140.24Y-146.7
X140.24Y-149.24
X140.24Y-151.78
X140.24Y-154.32
X140.24Y-156.86
X140.24Y-159.4
X140.24Y-161.94
X140.24Y-164.48
X140.24Y-167.02
X140.96Y-92.75
X140.96Y-100.37
X141.11Y-77.53
X141.3Y-126.2
X142.99Y-87.28
X143.48Y-82.28
X143.5Y-92.75
X143.5Y-100.37
X143.5Y-105.0
X143.5Y-107.54
X143.5Y-110.08
X143.5Y-112.62
X143.5Y-115.16
X143.5Y-117.7
X143.5Y-120.24
X143.5Y-122.78
X144.5Y-134.0
X144.5Y-136.54
X144.5Y-139.08
X144.5Y-141.62
X144.5Y-144.16
X144.5Y-146.7
X144.5Y-149.24
X144.5Y-151.78
X144.5Y-154.32
X144.5Y-156.86
X145.89Y-164.85
X145.89Y-172.47
X146.04Y-92.75
X146.04Y-100.37
X146.11Y-77.53
X146.3Y-126.2
X146.7Y-160.2
X148.36Y-82.28
X148.58Y-92.75
X148.58Y-100.37
X149.11Y-77.53
X150.61Y-87.28
X151.12Y-92.75
X151.12Y-100.37
X151.12Y-105.0
X151.12Y-107.54
X151.12Y-110.08
X151.12Y-112.62
X151.12Y-115.16
X151.12Y-117.7
X151.12Y-120.24
X151.12Y-122.78
X151.7Y-160.2
X152.12Y-134.0
X152.12Y-136.54
X152.12Y-139.08
X152.12Y-141.62
X152.12Y-144.16
X152.12Y-146.7
X152.12Y-149.24
X152.12Y-151.78
X152.12Y-154.32
X152.12Y-156.86
X153.86Y-80.53
X153.86Y-88.15
X154.11Y-77.53
X157.0Y-134.0
X157.0Y-136.54
X157.0Y-139.08
X157.0Y-141.62
X157.0Y-144.16
X157.0Y-146.7
X157.0Y-149.24
X157.0Y-151.78
X157.0Y-154.32
X157.0Y-156.86
X157.14Y-106.0
X157.14Y-113.62
X158.1Y-160.2
X158.2Y-118.5
X159.68Y-106.0
X159.68Y-113.62
X159.84Y-121.88
X159.84Y-129.5
X162.22Y-106.0
X162.22Y-113.62
X162.38Y-121.88
X162.38Y-129.5
X162.7Y-98.9
X163.1Y-160.2
X163.2Y-118.5
X164.38Y-80.34
X164.38Y-82.88
X164.38Y-85.42
X164.38Y-87.96
X164.38Y-90.5
X164.38Y-93.04
X164.38Y-95.58
X164.62Y-134.0
X164.62Y-136.54
X164.62Y-139.08
X164.62Y-141.62
X164.62Y-144.16
X164.62Y-146.7
X164.62Y-149.24
X164.62Y-151.78
X164.62Y-154.32
X164.62Y-156.86
X164.76Y-106.0
X164.76Y-113.62
X164.92Y-121.88
X164.92Y-129.5
X167.3Y-106.0
X167.3Y-113.62
X167.46Y-121.88
X167.46Y-129.5
X167.7Y-98.9
X169.84Y-106.0
X169.84Y-113.62
X170.0Y-121.88
X170.0Y-129.5
X170.1Y-156.0
X170.38Y-134.0
X170.38Y-136.54
X170.38Y-139.08
X170.38Y-141.62
X170.38Y-144.16
X170.38Y-146.7
X170.38Y-149.24
X170.38Y-151.78
X172.0Y-80.34
X172.0Y-82.88
X172.0Y-85.42
X172.0Y-87.96
X172.0Y-90.5
X172.0Y-93.04
X172.0Y-95.58
X172.38Y-106.0
X172.38Y-113.62
X172.54Y-121.88
X172.54Y-129.5
X174.92Y-106.0
X174.92Y-113.62
X175.08Y-121.88
X175.08Y-129.5
X175.1Y-156.0
X176.38Y-80.34
X176.38Y-82.88
X176.38Y-85.42
X176.38Y-87.96
X176.38Y-90.5
X176.38Y-93.04
X176.38Y-95.58
X176.5Y-160.7
X177.46Y-106.0
X177.46Y-113.62
X177.62Y-121.88
X177.62Y-129.5
X178.0Y-134.0
X178.0Y-136.54
X178.0Y-139.08
X178.0Y-141.62
X178.0Y-144.16
X178.0Y-146.7
X178.0Y-149.24
X178.0Y-151.78
X178.9Y-116.9
X179.0Y-160.7
X180.0Y-106.0
X180.0Y-113.62
X180.5Y-98.3
X180.5Y-103.3
X182.61Y-136.78
X182.61Y-139.32
X182.61Y-141.86
X182.61Y-144.4
X182.61Y-146.94
X182.61Y-149.48
X182.61Y-152.02
X182.61Y-154.56
X182.61Y-157.1
X182.61Y-159.64
X182.61Y-162.18
X182.61Y-164.72
X182.61Y-167.26
X182.61Y-169.8
X182.61Y-172.34
X182.61Y-174.88
X182.9Y-122.0
X182.97Y-125.13
X182.97Y-132.75
X183.7Y-76.4
X183.9Y-116.9
X184.0Y-80.34
X184.0Y-82.88
X184.0Y-85.42
X184.0Y-87.96
X184.0Y-90.5
X184.0Y-93.04
X184.0Y-95.58
X184.6Y-98.8
X184.6Y-103.8
X185.51Y-125.13
X185.51Y-132.75
X187.64Y-105.88
X187.64Y-113.5
X187.9Y-122.0
X188.05Y-125.13
X188.05Y-132.75
X188.5Y-80.38
X188.5Y-82.92
X188.5Y-85.46
X188.5Y-88.0
X188.5Y-90.54
X188.5Y-93.08
X188.5Y-95.62
X188.7Y-76.4
X190.18Y-105.88
X190.18Y-113.5
X190.59Y-125.13
X190.59Y-132.75
X192.72Y-105.88
X192.72Y-113.5
X193.13Y-125.13
X193.13Y-132.75
X195.26Y-105.88
X195.26Y-113.5
X195.67Y-125.13
X195.67Y-132.75
X196.12Y-80.38
X196.12Y-82.92
X196.12Y-85.46
X196.12Y-88.0
X196.12Y-90.54
X196.12Y-93.08
X196.12Y-95.62
X197.8Y-105.88
X197.8Y-113.5
X197.85Y-136.78
X197.85Y-139.32
X197.85Y-141.86
X197.85Y-144.4
X197.85Y-146.94
X197.85Y-149.48
X197.85Y-152.02
X197.85Y-154.56
X197.85Y-157.1
X197.85Y-159.64
X197.85Y-162.18
X197.85Y-164.72
X197.85Y-167.26
X197.85Y-169.8
X197.85Y-172.34
X197.85Y-174.88
X198.21Y-125.13
X198.21Y-132.75
X200.34Y-105.88
X200.34Y-113.5
X200.4Y-98.8
X200.5Y-80.38
X200.5Y-82.92
X200.5Y-85.46
X200.5Y-88.0
X200.5Y-90.54
X200.5Y-93.08
X200.5Y-95.62
X200.75Y-125.13
X200.75Y-132.75
X201.2Y-136.8
X202.85Y-141.82
X202.85Y-144.36
X202.85Y-146.9
X202.85Y-149.44
X202.85Y-151.98
X202.85Y-154.52
X202.85Y-157.06
X202.85Y-159.6
X202.85Y-162.14
X202.85Y-164.68
X202.85Y-167.22
X202.85Y-169.76
X202.85Y-172.3
X202.85Y-174.84
X202.88Y-105.88
X202.88Y-113.5
X204.89Y-125.0
X204.89Y-132.62
X205.4Y-98.8
X205.42Y-105.88
X205.42Y-113.5
X205.63Y-121.54
X206.2Y-136.8
X207.43Y-125.0
X207.43Y-132.62
X207.96Y-105.88
X207.96Y-113.5
X208.12Y-80.38
X208.12Y-82.92
X208.12Y-85.46
X208.12Y-88.0
X208.12Y-90.54
X208.12Y-93.08
X208.12Y-95.62
X209.97Y-125.0
X209.97Y-132.62
X210.5Y-105.88
X210.5Y-113.5
X210.63Y-121.54
X212.1Y-79.6
X212.1Y-84.6
X212.1Y-86.8
X212.1Y-91.8
X212.5Y-98.2
X212.5Y-103.2
X212.51Y-125.0
X212.51Y-132.62
X213.6Y-137.3
X215.05Y-125.0
X215.05Y-132.62
X215.5Y-78.38
X215.5Y-86.0
X215.5Y-92.5
X215.5Y-100.12
X217.59Y-125.0
X217.59Y-132.62
X218.0Y-106.0
X218.0Y-113.62
X218.04Y-78.38
X218.04Y-86.0
X218.04Y-92.5
X218.04Y-100.12
X218.09Y-141.82
X218.09Y-144.36
X218.09Y-146.9
X218.09Y-149.44
X218.09Y-151.98
X218.09Y-154.52
X218.09Y-157.06
X218.09Y-159.6
X218.09Y-162.14
X218.09Y-164.68
X218.09Y-167.22
X218.09Y-169.76
X218.09Y-172.3
X218.09Y-174.84
X218.6Y-137.3
X220.13Y-125.0
X220.13Y-132.62
X220.54Y-106.0
X220.54Y-113.62
X220.58Y-78.38
X220.58Y-86.0
X220.58Y-92.5
X220.58Y-100.12
X222.26Y-160.38
X222.26Y-168.0
X222.26Y-172.5
X222.26Y-180.12
X222.67Y-125.0
X222.67Y-132.62
X223.08Y-106.0
X223.08Y-113.62
X223.12Y-78.38
X223.12Y-86.0
X223.12Y-92.5
X223.12Y-100.12
X224.8Y-160.38
X224.8Y-168.0
X224.8Y-172.5
X224.8Y-180.12
X225.21Y-125.0
X225.21Y-132.62
X225.62Y-106.0
X225.62Y-113.62
X225.66Y-78.38
X225.66Y-86.0
X225.66Y-92.5
X225.66Y-100.12
X227.34Y-160.38
X227.34Y-168.0
X227.34Y-172.5
X227.34Y-180.12
X227.75Y-125.0
X227.75Y-132.62
X228.16Y-106.0
X228.16Y-113.62
X228.2Y-78.38
X228.2Y-86.0
X228.2Y-92.5
X228.2Y-100.12
X228.4Y-136.3
X228.4Y-141.3
X228.4Y-149.2
X228.4Y-154.2
X229.88Y-160.38
X229.88Y-168.0
X229.88Y-172.5
X229.88Y-180.12
X230.7Y-106.0
X230.7Y-113.62
X230.74Y-78.38
X230.74Y-86.0
X230.74Y-92.5
X230.74Y-100.12
X231.46Y-123.88
X231.46Y-131.5
X231.46Y-136.35
X231.46Y-143.97
X231.46Y-148.38
X231.46Y-156.0
X232.42Y-160.38
X232.42Y-168.0
X232.42Y-172.5
X232.42Y-180.12
X233.24Y-106.0
X233.24Y-113.62
X233.28Y-92.5
X233.28Y-100.12
X234.0Y-123.88
X234.0Y-131.5
X234.0Y-136.35
X234.0Y-143.97
X234.0Y-148.38
X234.0Y-156.0
X234.9Y-77.5
X234.9Y-82.5
X234.96Y-160.38
X234.96Y-168.0
X234.96Y-172.5
X234.96Y-180.12
X235.78Y-106.0
X235.78Y-113.62
X236.54Y-123.88
X236.54Y-131.5
X236.54Y-136.35
X236.54Y-143.97
X236.54Y-148.38
X236.54Y-156.0
X237.5Y-160.38
X237.5Y-168.0
X237.5Y-172.5
X237.5Y-180.12
X238.0Y-78.38
X238.0Y-86.0
X238.32Y-106.0
X238.32Y-113.62
X239.08Y-123.88
X239.08Y-131.5
X239.08Y-136.35
X239.08Y-143.97
X239.08Y-148.38
X239.08Y-156.0
X240.04Y-160.38
X240.04Y-168.0
X240.04Y-172.5
X240.04Y-180.12
X240.54Y-78.38
X240.54Y-86.0
X240.86Y-106.0
X240.86Y-113.62
X241.0Y-92.5
X241.0Y-100.12
X241.62Y-123.88
X241.62Y-131.5
X241.62Y-136.35
X241.62Y-143.97
X241.62Y-148.38
X241.62Y-156.0
X242.0Y-89.5
X242.58Y-160.38
X242.58Y-168.0
X242.58Y-172.5
X242.58Y-180.12
X243.08Y-78.38
X243.08Y-86.0
X243.54Y-92.5
X243.54Y-100.12
X244.16Y-123.88
X244.16Y-131.5
X244.16Y-136.35
X244.16Y-143.97
X244.16Y-148.38
X244.16Y-156.0
X245.1Y-107.8
X245.1Y-112.8
X245.12Y-160.38
X245.12Y-168.0
X245.12Y-172.5
X245.12Y-180.12
X245.62Y-78.38
X245.62Y-86.0
X246.08Y-92.5
X246.08Y-100.12
X246.7Y-123.88
X246.7Y-131.5
X246.7Y-136.35
X246.7Y-143.97
X246.7Y-148.38
X246.7Y-156.0
X247.0Y-89.5
X248.16Y-78.38
X248.16Y-86.0
X248.565Y-105.38
X248.565Y-113.0
X248.6Y-181.6
X248.62Y-92.5
X248.62Y-100.12
X250.7Y-78.38
X250.7Y-86.0
X251.105Y-105.38
X251.105Y-113.0
X251.16Y-92.5
X251.16Y-100.12
X251.9Y-150.3
X252.68Y-124.065
X252.68Y-126.605
X252.68Y-129.145
X252.68Y-131.685
X252.68Y-134.225
X252.68Y-136.765
X252.68Y-139.305
X252.68Y-141.845
X252.68Y-144.385
X252.68Y-146.925
X252.68Y-157.0
X252.68Y-159.54
X252.68Y-162.08
X252.68Y-164.62
X252.68Y-167.16
X252.68Y-169.7
X252.68Y-172.24
X252.68Y-174.78
X253.24Y-78.38
X253.24Y-86.0
X253.6Y-181.6
X253.645Y-105.38
X253.645Y-113.0
X253.7Y-92.5
X253.7Y-100.12
X256.185Y-105.38
X256.185Y-113.0
X256.24Y-92.5
X256.24Y-100.12
X256.6Y-154.0
X256.7Y-78.2
X256.7Y-83.2
X256.9Y-150.3
X258.725Y-105.38
X258.725Y-113.0
X258.78Y-92.5
X258.78Y-100.12
X260.0Y-78.38
X260.0Y-86.0
X260.3Y-124.065
X260.3Y-126.605
X260.3Y-129.145
X260.3Y-131.685
X260.3Y-134.225
X260.3Y-136.765
X260.3Y-139.305
X260.3Y-141.845
X260.3Y-144.385
X260.3Y-146.925
X260.3Y-157.0
X260.3Y-159.54
X260.3Y-162.08
X260.3Y-164.62
X260.3Y-167.16
X260.3Y-169.7
X260.3Y-172.24
X260.3Y-174.78
X261.265Y-105.38
X261.265Y-113.0
X261.6Y-154.0
X262.54Y-78.38
X262.54Y-86.0
X263.5Y-92.38
X263.5Y-100.0
X263.805Y-105.38
X263.805Y-113.0
X265.08Y-78.38
X265.08Y-86.0
X265.2Y-177.9
X265.5Y-124.065
X265.5Y-126.605
X265.5Y-129.145
X265.5Y-131.685
X265.5Y-134.225
X265.5Y-136.765
X265.5Y-139.305
X265.5Y-141.845
X265.5Y-144.385
X265.5Y-146.925
X265.5Y-157.0
X265.5Y-159.54
X265.5Y-162.08
X265.5Y-164.62
X265.5Y-167.16
X265.5Y-169.7
X265.5Y-172.24
X265.5Y-174.78
X266.04Y-92.38
X266.04Y-100.0
X266.18Y-116.71
X266.345Y-105.38
X266.345Y-113.0
X267.62Y-78.38
X267.62Y-86.0
X268.3Y-150.1
X268.58Y-92.38
X268.58Y-100.0
X268.885Y-105.38
X268.885Y-113.0
X270.16Y-78.38
X270.16Y-86.0
X270.2Y-177.9
X271.12Y-92.38
X271.12Y-100.0
X271.18Y-116.71
X271.425Y-105.38
X271.425Y-113.0
X272.7Y-78.38
X272.7Y-86.0
X273.12Y-124.065
X273.12Y-126.605
X273.12Y-129.145
X273.12Y-131.685
X273.12Y-134.225
X273.12Y-136.765
X273.12Y-139.305
X273.12Y-141.845
X273.12Y-144.385
X273.12Y-146.925
X273.12Y-157.0
X273.12Y-159.54
X273.12Y-162.08
X273.12Y-164.62
X273.12Y-167.16
X273.12Y-169.7
X273.12Y-172.24
X273.12Y-174.78
X273.3Y-150.1
X273.66Y-92.38
X273.66Y-100.0
X275.24Y-78.38
X275.24Y-86.0
X276.2Y-92.38
X276.2Y-100.0
X276.68Y-105.38
X276.68Y-113.0
X277.2Y-177.9
X278.5Y-78.6
X278.5Y-83.6
X278.5Y-124.065
X278.5Y-126.605
X278.5Y-129.145
X278.5Y-131.685
X278.5Y-134.225
X278.5Y-136.765
X278.5Y-139.305
X278.5Y-141.845
X278.5Y-144.385
X278.5Y-146.925
X278.5Y-157.0
X278.5Y-159.54
X278.5Y-162.08
X278.5Y-164.62
X278.5Y-167.16
X278.5Y-169.7
X278.5Y-172.24
X278.5Y-174.78
X278.74Y-92.38
X278.74Y-100.0
X279.22Y-105.38
X279.22Y-113.0
X279.9Y-150.1
X281.28Y-92.38
X281.28Y-100.0
X281.76Y-105.38
X281.76Y-113.0
X282.0Y-78.38
X282.0Y-86.0
X282.2Y-177.9
X284.3Y-105.38
X284.3Y-113.0
X284.54Y-78.38
X284.54Y-86.0
X284.65Y-95.6
X284.65Y-100.6
X284.9Y-150.1
X286.12Y-124.065
X286.12Y-126.605
X286.12Y-129.145
X286.12Y-131.685
X286.12Y-134.225
X286.12Y-136.765
X286.12Y-139.305
X286.12Y-141.845
X286.12Y-144.385
X286.12Y-146.925
X286.12Y-157.0
X286.12Y-159.54
X286.12Y-162.08
X286.12Y-164.62
X286.12Y-167.16
X286.12Y-169.7
X286.12Y-172.24
X286.12Y-174.78
X286.84Y-105.38
X286.84Y-113.0
X287.08Y-78.38
X287.08Y-86.0
X289.38Y-105.38
X289.38Y-113.0
X289.4Y-177.9
X289.62Y-78.38
X289.62Y-86.0
X290.0Y-92.38
X290.0Y-100.0
X291.1Y-150.0
X291.5Y-124.065
X291.5Y-126.605
X291.5Y-129.145
X291.5Y-131.685
X291.5Y-134.225
X291.5Y-136.765
X291.5Y-139.305
X291.5Y-141.845
X291.5Y-144.385
X291.5Y-146.925
X291.5Y-157.0
X291.5Y-159.54
X291.5Y-162.08
X291.5Y-164.62
X291.5Y-167.16
X291.5Y-169.7
X291.5Y-172.24
X291.5Y-174.78
X291.92Y-105.38
X291.92Y-113.0
X292.16Y-78.38
X292.16Y-86.0
X292.54Y-92.38
X292.54Y-100.0
X294.4Y-177.9
X294.46Y-105.38
X294.46Y-113.0
X294.7Y-78.38
X294.7Y-86.0
X295.08Y-92.38
X295.08Y-100.0
X296.1Y-150.0
X297.0Y-105.38
X297.0Y-113.0
X297.24Y-78.38
X297.24Y-86.0
X297.62Y-92.38
X297.62Y-100.0
X299.12Y-124.065
X299.12Y-126.605
X299.12Y-129.145
X299.12Y-131.685
X299.12Y-134.225
X299.12Y-136.765
X299.12Y-139.305
X299.12Y-141.845
X299.12Y-144.385
X299.12Y-146.925
X299.12Y-157.0
X299.12Y-159.54
X299.12Y-162.08
X299.12Y-164.62
X299.12Y-167.16
X299.12Y-169.7
X299.12Y-172.24
X299.12Y-174.78
X299.54Y-105.38
X299.54Y-113.0
X300.16Y-92.38
X300.16Y-100.0
X300.75Y-178.5
X300.75Y-181.0
X302.7Y-92.38
X302.7Y-100.0
X302.74Y-108.0
X302.74Y-113.0
X305.24Y-92.38
X305.24Y-100.0
X307.37Y-109.26
X307.37Y-111.76
X307.78Y-92.38
X307.78Y-100.0
T5
X126.5Y-96.0
X126.5Y-98.54
T6
X113.252Y-92.325
X113.252Y-94.825
X115.252Y-92.325
X115.252Y-94.825
T7
X114.55Y-176.42
X114.55Y-178.96
X117.09Y-176.42
X117.09Y-178.96
X119.63Y-176.42
X119.63Y-178.96
X122.17Y-176.42
X122.17Y-178.96
X124.71Y-176.42
X124.71Y-178.96
X127.25Y-176.42
X127.25Y-178.96
X129.79Y-176.42
X129.79Y-178.96
X132.33Y-176.42
X132.33Y-178.96
X134.87Y-176.42
X134.87Y-178.96
X137.41Y-176.42
X137.41Y-178.96
X139.95Y-176.42
X139.95Y-178.96
X142.49Y-176.42
X142.49Y-178.96
X145.03Y-176.42
X145.03Y-178.96
X147.57Y-176.42
X147.57Y-178.96
X150.11Y-176.42
X150.11Y-178.96
X152.65Y-176.42
X152.65Y-178.96
X155.19Y-176.42
X155.19Y-178.96
X155.42Y-94.0
X155.46Y-98.0
X157.73Y-176.42
X157.73Y-178.96
X157.96Y-94.0
X158.0Y-98.0
X160.27Y-176.42
X160.27Y-178.96
X160.5Y-94.0
X162.81Y-176.42
X162.81Y-178.96
X199.66Y-178.8
X202.2Y-178.8
X204.74Y-178.8
X209.16Y-178.8
X211.7Y-178.8
X214.24Y-178.8
X305.0Y-117.09
X305.0Y-119.63
X305.0Y-122.17
X305.0Y-124.71
X305.0Y-127.25
X305.0Y-129.79
X305.0Y-132.33
X305.0Y-134.87
X305.0Y-137.41
X305.0Y-139.95
X305.0Y-142.49
X305.0Y-145.03
X305.0Y-147.57
X305.0Y-150.11
X305.0Y-152.65
X305.0Y-155.19
X305.0Y-157.73
X305.0Y-160.27
X305.0Y-162.81
X305.0Y-165.35
X307.54Y-117.09
X307.54Y-119.63
X307.54Y-122.17
X307.54Y-124.71
X307.54Y-127.25
X307.54Y-129.79
X307.54Y-132.33
X307.54Y-134.87
X307.54Y-137.41
X307.54Y-139.95
X307.54Y-142.49
X307.54Y-145.03
X307.54Y-147.57
X307.54Y-150.11
X307.54Y-152.65
X307.54Y-155.19
X307.54Y-157.73
X307.54Y-160.27
X307.54Y-162.81
X307.54Y-165.35
T8
X119.0Y-77.5
X119.0Y-82.0
X125.5Y-77.5
X125.5Y-82.0
T9
X120.75Y-85.3
X120.75Y-98.0
T10
X110.542Y-87.555
X110.542Y-99.595
T11
X107.0Y-78.0
X107.0Y-180.0
X307.0Y-78.0
X307.326Y-180.326
M30
