%TF.GenerationSoftware,KiCad,Pcbnew,8.0.8*%
%TF.CreationDate,2025-01-31T18:29:07-05:00*%
%TF.ProjectId,8_16_computer_2,385f3136-5f63-46f6-9d70-757465725f32,rev?*%
%TF.SameCoordinates,Original*%
%TF.FileFunction,Drillmap*%
%TF.FilePolarity,Positive*%
%FSLAX45Y45*%
G04 Gerber Fmt 4.5, Leading zero omitted, Abs format (unit mm)*
G04 Created by KiCad (PCBNEW 8.0.8) date 2025-01-31 18:29:07*
%MOMM*%
%LPD*%
G01*
G04 APERTURE LIST*
%ADD10C,0.038100*%
%ADD11C,0.200000*%
G04 APERTURE END LIST*
D10*
X10300000Y-7400000D02*
X31100000Y-7400000D01*
X31100000Y-18400000D01*
X10300000Y-18400000D01*
X10300000Y-7400000D01*
D11*
X10558872Y-18713389D02*
X10558872Y-18513389D01*
X10558872Y-18513389D02*
X10606491Y-18513389D01*
X10606491Y-18513389D02*
X10635062Y-18522913D01*
X10635062Y-18522913D02*
X10654110Y-18541960D01*
X10654110Y-18541960D02*
X10663634Y-18561008D01*
X10663634Y-18561008D02*
X10673158Y-18599103D01*
X10673158Y-18599103D02*
X10673158Y-18627675D01*
X10673158Y-18627675D02*
X10663634Y-18665770D01*
X10663634Y-18665770D02*
X10654110Y-18684817D01*
X10654110Y-18684817D02*
X10635062Y-18703865D01*
X10635062Y-18703865D02*
X10606491Y-18713389D01*
X10606491Y-18713389D02*
X10558872Y-18713389D01*
X10758872Y-18713389D02*
X10758872Y-18580055D01*
X10758872Y-18618151D02*
X10768396Y-18599103D01*
X10768396Y-18599103D02*
X10777919Y-18589579D01*
X10777919Y-18589579D02*
X10796967Y-18580055D01*
X10796967Y-18580055D02*
X10816015Y-18580055D01*
X10882681Y-18713389D02*
X10882681Y-18580055D01*
X10882681Y-18513389D02*
X10873158Y-18522913D01*
X10873158Y-18522913D02*
X10882681Y-18532436D01*
X10882681Y-18532436D02*
X10892205Y-18522913D01*
X10892205Y-18522913D02*
X10882681Y-18513389D01*
X10882681Y-18513389D02*
X10882681Y-18532436D01*
X11006491Y-18713389D02*
X10987443Y-18703865D01*
X10987443Y-18703865D02*
X10977919Y-18684817D01*
X10977919Y-18684817D02*
X10977919Y-18513389D01*
X11111253Y-18713389D02*
X11092205Y-18703865D01*
X11092205Y-18703865D02*
X11082681Y-18684817D01*
X11082681Y-18684817D02*
X11082681Y-18513389D01*
X11339824Y-18713389D02*
X11339824Y-18513389D01*
X11339824Y-18513389D02*
X11406491Y-18656246D01*
X11406491Y-18656246D02*
X11473157Y-18513389D01*
X11473157Y-18513389D02*
X11473157Y-18713389D01*
X11654110Y-18713389D02*
X11654110Y-18608627D01*
X11654110Y-18608627D02*
X11644586Y-18589579D01*
X11644586Y-18589579D02*
X11625538Y-18580055D01*
X11625538Y-18580055D02*
X11587443Y-18580055D01*
X11587443Y-18580055D02*
X11568396Y-18589579D01*
X11654110Y-18703865D02*
X11635062Y-18713389D01*
X11635062Y-18713389D02*
X11587443Y-18713389D01*
X11587443Y-18713389D02*
X11568396Y-18703865D01*
X11568396Y-18703865D02*
X11558872Y-18684817D01*
X11558872Y-18684817D02*
X11558872Y-18665770D01*
X11558872Y-18665770D02*
X11568396Y-18646722D01*
X11568396Y-18646722D02*
X11587443Y-18637198D01*
X11587443Y-18637198D02*
X11635062Y-18637198D01*
X11635062Y-18637198D02*
X11654110Y-18627675D01*
X11749348Y-18580055D02*
X11749348Y-18780055D01*
X11749348Y-18589579D02*
X11768396Y-18580055D01*
X11768396Y-18580055D02*
X11806491Y-18580055D01*
X11806491Y-18580055D02*
X11825538Y-18589579D01*
X11825538Y-18589579D02*
X11835062Y-18599103D01*
X11835062Y-18599103D02*
X11844586Y-18618151D01*
X11844586Y-18618151D02*
X11844586Y-18675294D01*
X11844586Y-18675294D02*
X11835062Y-18694341D01*
X11835062Y-18694341D02*
X11825538Y-18703865D01*
X11825538Y-18703865D02*
X11806491Y-18713389D01*
X11806491Y-18713389D02*
X11768396Y-18713389D01*
X11768396Y-18713389D02*
X11749348Y-18703865D01*
X11930300Y-18694341D02*
X11939824Y-18703865D01*
X11939824Y-18703865D02*
X11930300Y-18713389D01*
X11930300Y-18713389D02*
X11920777Y-18703865D01*
X11920777Y-18703865D02*
X11930300Y-18694341D01*
X11930300Y-18694341D02*
X11930300Y-18713389D01*
X11930300Y-18589579D02*
X11939824Y-18599103D01*
X11939824Y-18599103D02*
X11930300Y-18608627D01*
X11930300Y-18608627D02*
X11920777Y-18599103D01*
X11920777Y-18599103D02*
X11930300Y-18589579D01*
X11930300Y-18589579D02*
X11930300Y-18608627D01*
M02*
